HIERARCHY
ROOT Hips
{
  OFFSET 5.84602e-005 68.8428 3.50346
  CHANNELS 6 Xposition Yposition Zposition Zrotation Xrotation Yrotation
  JOINT Spine
  {
    OFFSET 0 8.597 -4.6522
    CHANNELS 3 Zrotation Xrotation Yrotation
    JOINT Spine1
    {
      OFFSET 0 7.8454 0.4098
      CHANNELS 3 Zrotation Xrotation Yrotation
      JOINT Spine2
      {
        OFFSET 0 9.7078 -2.1609
        CHANNELS 3 Zrotation Xrotation Yrotation
        JOINT Neck
        {
          OFFSET 0 21.8761 -0.4549
          CHANNELS 3 Zrotation Xrotation Yrotation
          JOINT Head
          {
            OFFSET 0 12.3537 3.3602
            CHANNELS 3 Zrotation Xrotation Yrotation
            End Site
            {
              OFFSET 0.0001 18.9506 0.5657
            }
          }
        }
        JOINT LeftShoulder
        {
          OFFSET 2.2086 21.1115 7.2329
          CHANNELS 3 Zrotation Xrotation Yrotation
          JOINT LeftArm
          {
            OFFSET 13.1193 3.0282 -4.8998
            CHANNELS 3 Zrotation Xrotation Yrotation
            JOINT LeftForeArm
            {
              OFFSET 27.4081 -0.0973053 -0.2375
              CHANNELS 3 Zrotation Xrotation Yrotation
              JOINT LeftHand
              {
                OFFSET 22.8641 0.0662994 -0.1369
                CHANNELS 3 Zrotation Xrotation Yrotation
                JOINT LeftHandIndex1
                {
                  OFFSET 8.8614 0.775009 2.4612
                  CHANNELS 3 Zrotation Xrotation Yrotation
                  JOINT LeftHandIndex2
                  {
                    OFFSET 3.3146 -0.808304 0.5841
                    CHANNELS 3 Zrotation Xrotation Yrotation
                    JOINT LeftHandIndex3
                    {
                      OFFSET 2.2628 -0.552002 0.3989
                      CHANNELS 3 Zrotation Xrotation Yrotation
                      End Site
                      {
                        OFFSET 1.6102 -0.4807 0.2612
                      }
                    }
                  }
                }
                JOINT LeftHandMiddle1
                {
                  OFFSET 8.9937 0.895004 0.2143
                  CHANNELS 3 Zrotation Xrotation Yrotation
                  JOINT LeftHandMiddle2
                  {
                    OFFSET 4.0984 0.0113983 -0.0242
                    CHANNELS 3 Zrotation Xrotation Yrotation
                    JOINT LeftHandMiddle3
                    {
                      OFFSET 2.2716 0.00689697 -0.0138001
                      CHANNELS 3 Zrotation Xrotation Yrotation
                      End Site
                      {
                        OFFSET 2.0404 -0.1441 0.0027
                      }
                    }
                  }
                }
                JOINT LeftHandRing1
                {
                  OFFSET 8.5234 0.597198 -2.0164
                  CHANNELS 3 Zrotation Xrotation Yrotation
                  JOINT LeftHandRing2
                  {
                    OFFSET 3.7188 -0.188293 -0.2328
                    CHANNELS 3 Zrotation Xrotation Yrotation
                    JOINT LeftHandRing3
                    {
                      OFFSET 2.1191 -0.106598 -0.1332
                      CHANNELS 3 Zrotation Xrotation Yrotation
                      End Site
                      {
                        OFFSET 1.8737 -0.2304 -0.0886
                      }
                    }
                  }
                }
                JOINT LeftHandPinky1
                {
                  OFFSET 7.9094 -0.601089 -3.4825
                  CHANNELS 3 Zrotation Xrotation Yrotation
                  JOINT LeftHandPinky2
                  {
                    OFFSET 2.2874 -0.477005 -0.6314
                    CHANNELS 3 Zrotation Xrotation Yrotation
                    JOINT LeftHandPinky3
                    {
                      OFFSET 1.6774 -0.349396 -0.4633
                      CHANNELS 3 Zrotation Xrotation Yrotation
                      End Site
                      {
                        OFFSET 1.4888 -0.4091 -0.3416
                      }
                    }
                  }
                }
                JOINT LeftHandThumb1
                {
                  OFFSET 1.833 -1.3875 1.3896
                  CHANNELS 3 Zrotation Xrotation Yrotation
                  JOINT LeftHandThumb2
                  {
                    OFFSET 3.4129 -1.121 2.5732
                    CHANNELS 3 Zrotation Xrotation Yrotation
                    JOINT LeftHandThumb3
                    {
                      OFFSET 2.2474 -0.804199 1.6192
                      CHANNELS 3 Zrotation Xrotation Yrotation
                      End Site
                      {
                        OFFSET 1.6527 -0.5689 1.1317
                      }
                    }
                  }
                }
              }
            }
          }
        }
        JOINT RightShoulder
        {
          OFFSET -2.2086 21.1115 7.2329
          CHANNELS 3 Zrotation Xrotation Yrotation
          JOINT RightArm
          {
            OFFSET -13.1216 3.0287 -4.9007
            CHANNELS 3 Zrotation Xrotation Yrotation
            JOINT RightForeArm
            {
              OFFSET -27.4081 -0.0973053 -0.2375
              CHANNELS 3 Zrotation Xrotation Yrotation
              JOINT RightHand
              {
                OFFSET -22.8641 0.0664063 -0.1369
                CHANNELS 3 Zrotation Xrotation Yrotation
                JOINT RightHandIndex1
                {
                  OFFSET -8.8614 0.774994 2.4612
                  CHANNELS 3 Zrotation Xrotation Yrotation
                  JOINT RightHandIndex2
                  {
                    OFFSET -3.3146 -0.808304 0.5841
                    CHANNELS 3 Zrotation Xrotation Yrotation
                    JOINT RightHandIndex3
                    {
                      OFFSET -2.2628 -0.552002 0.3989
                      CHANNELS 3 Zrotation Xrotation Yrotation
                      End Site
                      {
                        OFFSET -1.6102 -0.4807 0.2612
                      }
                    }
                  }
                }
                JOINT RightHandMiddle1
                {
                  OFFSET -8.9937 0.894989 0.2143
                  CHANNELS 3 Zrotation Xrotation Yrotation
                  JOINT RightHandMiddle2
                  {
                    OFFSET -4.0984 0.0113983 -0.0242
                    CHANNELS 3 Zrotation Xrotation Yrotation
                    JOINT RightHandMiddle3
                    {
                      OFFSET -2.2716 0.00691223 -0.0138001
                      CHANNELS 3 Zrotation Xrotation Yrotation
                      End Site
                      {
                        OFFSET -2.0404 -0.1441 0.0027
                      }
                    }
                  }
                }
                JOINT RightHandRing1
                {
                  OFFSET -8.5234 0.597198 -2.0164
                  CHANNELS 3 Zrotation Xrotation Yrotation
                  JOINT RightHandRing2
                  {
                    OFFSET -3.7188 -0.188309 -0.2328
                    CHANNELS 3 Zrotation Xrotation Yrotation
                    JOINT RightHandRing3
                    {
                      OFFSET -2.1191 -0.106598 -0.1332
                      CHANNELS 3 Zrotation Xrotation Yrotation
                      End Site
                      {
                        OFFSET -1.8737 -0.2304 -0.0886
                      }
                    }
                  }
                }
                JOINT RightHandPinky1
                {
                  OFFSET -7.9094 -0.601105 -3.4825
                  CHANNELS 3 Zrotation Xrotation Yrotation
                  JOINT RightHandPinky2
                  {
                    OFFSET -2.2874 -0.477005 -0.6314
                    CHANNELS 3 Zrotation Xrotation Yrotation
                    JOINT RightHandPinky3
                    {
                      OFFSET -1.6774 -0.349396 -0.4633
                      CHANNELS 3 Zrotation Xrotation Yrotation
                      End Site
                      {
                        OFFSET -1.4888 -0.4091 -0.3416
                      }
                    }
                  }
                }
                JOINT RightHandThumb1
                {
                  OFFSET -1.833 -1.38751 1.3896
                  CHANNELS 3 Zrotation Xrotation Yrotation
                  JOINT RightHandThumb2
                  {
                    OFFSET -3.41299 -1.12099 2.5732
                    CHANNELS 3 Zrotation Xrotation Yrotation
                    JOINT RightHandThumb3
                    {
                      OFFSET -2.24741 -0.804108 1.6192
                      CHANNELS 3 Zrotation Xrotation Yrotation
                      End Site
                      {
                        OFFSET -1.6527 -0.5689 1.1317
                      }
                    }
                  }
                }
              }
            }
          }
        }
      }
    }
  }
  JOINT RightUpLeg
  {
    OFFSET -9.1966 3.8861 -0.7581
    CHANNELS 3 Zrotation Xrotation Yrotation
    JOINT RightLeg
    {
      OFFSET -0.7359 -41.0265 0
      CHANNELS 3 Zrotation Xrotation Yrotation
      JOINT RightFoot
      {
        OFFSET 0 -40.2855 0
        CHANNELS 3 Zrotation Xrotation Yrotation
        JOINT RightToeBase
        {
          OFFSET 0 -5.6122 11.7359
          CHANNELS 3 Zrotation Xrotation Yrotation
          End Site
          {
            OFFSET 0 0 7.8731
          }
        }
      }
    }
  }
  JOINT LeftUpLeg
  {
    OFFSET 9.1965 3.8864 -0.7581
    CHANNELS 3 Zrotation Xrotation Yrotation
    JOINT LeftLeg
    {
      OFFSET 0.7359 -41.0268 0
      CHANNELS 3 Zrotation Xrotation Yrotation
      JOINT LeftFoot
      {
        OFFSET 0 -40.2855 0
        CHANNELS 3 Zrotation Xrotation Yrotation
        JOINT LeftToeBase
        {
          OFFSET 0 -5.6122 11.7359
          CHANNELS 3 Zrotation Xrotation Yrotation
          End Site
          {
            OFFSET 0 0 7.8731
          }
        }
      }
    }
  }
}
MOTION
Frames:	5
Frame Time:	0.0333333
39.7395 14.3818 1.45559 -0.00777733 -52.8171 179.996 -0.187662 8.09172 -0.13977 -0.360636 16.1839 -0.256353 -0.360636 16.1839 -0.256353 -2.7669e-005 -43.0947 -1.38474e-005 -1.12251e-007 -26.8771 7.55372e-008 2.47789 -10.8222 -65.4241 -0.0292768 -3.79682 -5.44493 -0.76624 -11.8945 -6.05684 55.6995 -12.0883 -4.43187 1.01517e-006 -1.33289e-006 -2.92204e-007 8.25307e-007 1.68162e-006 2.98304e-007 1.01517e-006 -1.33289e-006 -2.92204e-007 1.01517e-006 -1.33289e-006 -2.92204e-007 -0.0145609 -8.51145e-005 -2.1259e-006 1.01515e-006 -1.33285e-006 -2.92374e-007 1.01517e-006 -1.33289e-006 -2.92204e-007 -0.0187396 -0.00117272 5.11116e-005 1.01514e-006 -1.33285e-006 -2.92432e-007 1.01517e-006 -1.33289e-006 -2.92204e-007 -0.0122132 -0.00323132 0.000668063 1.01514e-006 -1.33287e-006 -2.92374e-007 1.01517e-006 -1.33289e-006 -2.92204e-007 8.25307e-007 1.68162e-006 2.98304e-007 1.01517e-006 -1.33289e-006 -2.92204e-007 -1.14869 -9.10429 60.2735 -0.633553 -3.82556 18.8811 -1.4433 -12.0082 7.68501 -60.8688 -3.93596 0.705381 -1.04826e-006 -1.32286e-006 2.24036e-007 -9.43793e-007 2.46149e-006 9.35522e-006 -1.04826e-006 -1.32286e-006 2.24036e-007 -1.04826e-006 -1.32286e-006 2.24036e-007 0.0150156 -8.9626e-005 -1.08096e-006 -1.48073e-006 -1.31522e-006 -8.91431e-007 -1.04826e-006 -1.32286e-006 2.24036e-007 0.01896 -0.00118693 -5.96747e-005 -1.04824e-006 -1.32283e-006 2.24266e-007 -1.04826e-006 -1.32286e-006 2.24036e-007 0.0122762 -0.0032483 -0.000665432 -1.04824e-006 -1.32285e-006 2.24207e-007 -1.04826e-006 -1.32286e-006 2.24036e-007 -9.43793e-007 2.46149e-006 9.35522e-006 -1.04826e-006 -1.32286e-006 2.24036e-007 -142.466 -9.39284 -174.649 -144.928 63.2593 141.456 -18.5212 -5.2362 0.0821469 -4.17045e-007 1.19525e-006 1.91981e-007 140.212 -8.47552 175.689 145.011 63.2695 -141.559 20.7894 -5.78496 -1.60481 -1.39048e-006 -1.15421e-007 1.36083e-006 
39.7394 14.4855 1.40639 -0.00783426 -53.1425 179.996 -0.187464 8.09177 -0.139913 -0.360212 16.1839 -0.256672 -0.360212 16.1839 -0.256673 -2.73564e-005 -43.1454 -1.33629e-005 -3.19179e-007 -26.9367 1.88974e-008 2.57112 -11.0325 -65.9587 -0.0701924 -3.81401 -4.66448 -0.795292 -11.8853 -6.29823 56.1265 -12.1743 -4.37974 2.43477e-006 -5.25097e-007 1.13237e-006 -5.00312e-008 1.08912e-006 -9.54165e-006 5.08137e-007 -6.66492e-007 -1.44612e-007 2.43477e-006 -5.25097e-007 1.13237e-006 -0.014654 -8.61495e-005 -8.34793e-006 1.58145e-006 -1.05716e-006 2.64844e-006 2.43477e-006 -5.25097e-007 1.13237e-006 -0.0187796 -0.0011764 5.14064e-005 5.08123e-007 -6.6647e-007 -1.44726e-007 2.43477e-006 -5.25097e-007 1.13237e-006 -0.0122621 -0.00324172 0.00065977 5.08121e-007 -6.66482e-007 -1.44697e-007 2.43477e-006 -5.25097e-007 1.13237e-006 -5.00312e-008 1.08912e-006 -9.54165e-006 5.08137e-007 -6.66492e-007 -1.44612e-007 -1.14854 -9.15125 59.4826 -0.671799 -3.83228 19.9164 -1.60916 -12.0138 7.40581 -61.1216 -4.01031 0.674145 8.12424e-007 -1.60009e-007 5.41982e-006 -5.24317e-007 -6.6152e-007 1.11078e-007 3.64308e-007 -1.50904e-007 4.30561e-006 8.12424e-007 -1.60009e-007 5.41982e-006 0.0149631 -9.05748e-005 -2.8078e-006 3.65011e-007 -1.50345e-007 4.30563e-006 8.12424e-007 -1.60009e-007 5.41982e-006 0.0190238 -0.00119209 -5.66257e-005 3.65242e-007 -1.50244e-007 4.30563e-006 8.12424e-007 -1.60009e-007 5.41982e-006 0.0123084 -0.00325894 -0.000674179 8.12104e-007 -1.59296e-007 5.41984e-006 8.12424e-007 -1.60009e-007 5.41982e-006 -5.24317e-007 -6.6152e-007 1.11078e-007 3.64308e-007 -1.50904e-007 4.30561e-006 -142.741 -9.38015 -174.614 -144.923 63.2624 141.452 -18.1636 -5.29478 -0.133795 -1.39655e-007 -1.02332e-006 6.37486e-006 140.605 -8.50818 175.594 145.006 63.2726 -141.554 20.3106 -5.80654 -1.31124 6.9608e-008 1.99115e-007 -3.2346e-008 
39.7393 14.5893 1.35707 -0.00787696 -53.4678 179.996 -0.187265 8.09179 -0.140055 -0.359787 16.184 -0.25699 -0.359787 16.184 -0.25699 -2.9106e-007 -43.1964 -3.05125e-007 -1.61853e-007 -26.9963 1.89296e-009 2.66239 -11.2437 -66.4933 -0.110901 -3.83175 -3.88418 -0.824266 -11.8759 -6.53958 56.5538 -12.2599 -4.32699 -3.18055e-015 7.95139e-016 -3.18055e-015 -3.18055e-015 3.18055e-015 -4.77083e-015 -6.36111e-015 0 -6.36111e-015 -3.18055e-015 7.95139e-016 -3.18055e-015 -0.0146409 -8.91062e-005 1.46515e-006 0 0 -0 -3.18055e-015 7.95139e-016 -3.18055e-015 -0.0186984 -0.00117231 6.62072e-005 4.41391e-032 -1.59028e-015 1.59028e-015 -3.18055e-015 7.95139e-016 -3.18055e-015 -0.0122747 -0.003251 0.000673091 3.18055e-015 3.18055e-015 -4.77083e-015 -3.18055e-015 7.95139e-016 -3.18055e-015 -3.18055e-015 3.18055e-015 -4.77083e-015 -6.36111e-015 0 -6.36111e-015 -1.14903 -9.19818 58.6916 -0.709889 -3.83967 20.9513 -1.77505 -12.0185 7.12659 -61.3746 -4.08449 0.642577 -9.01449e-007 -2.04692e-006 -9.37874e-006 -4.82722e-007 -1.53226e-006 -6.29534e-006 6.09966e-007 -7.34182e-007 -8.48636e-006 -9.01449e-007 -2.04692e-006 -9.37874e-006 0.0149558 -9.18632e-005 -5.4747e-006 1.02923e-006 -2.20233e-007 -5.40293e-006 -9.01449e-007 -2.04692e-006 -9.37874e-006 0.0190267 -0.00119372 -6.55907e-005 1.02932e-006 -2.20464e-007 -5.40294e-006 -9.01449e-007 -2.04692e-006 -9.37874e-006 0.0122535 -0.00324435 -0.000671647 1.02898e-006 -2.20213e-007 -5.40299e-006 -9.01449e-007 -2.04692e-006 -9.37874e-006 -4.82722e-007 -1.53226e-006 -6.29534e-006 6.09966e-007 -7.34182e-007 -8.48636e-006 -143.014 -9.36762 -174.578 -144.917 63.2655 141.448 -17.8061 -5.35477 -0.349418 -3.48025e-007 2.8554e-007 3.31537e-006 140.998 -8.54138 175.5 145 63.2757 -141.55 19.8319 -5.83057 -1.0178 1.63111e-009 -7.16095e-007 -3.1537e-006 
39.7393 14.6934 1.30762 -0.00792073 -53.7931 179.996 -0.187065 8.09179 -0.140196 -0.359361 16.184 -0.257305 -0.359361 16.184 -0.257306 -3.08656e-005 -43.2467 -1.43721e-005 -2.16907e-007 -27.0558 -1.37676e-007 2.75172 -11.4557 -67.0279 -0.151327 -3.85001 -3.1041 -0.853219 -11.8665 -6.78091 56.9812 -12.3451 -4.27354 1.13313e-006 -5.78326e-007 4.07371e-006 1.97333e-006 1.48869e-007 1.26488e-006 1.13313e-006 -5.78326e-007 4.07371e-006 1.13313e-006 -5.78326e-007 4.07371e-006 -0.0146382 -8.86652e-005 5.30761e-006 1.13382e-006 -5.78843e-007 4.07364e-006 1.13313e-006 -5.78326e-007 4.07371e-006 -0.018811 -0.00118153 6.67889e-005 1.29343e-007 -2.03278e-007 1.26192e-006 1.13313e-006 -5.78326e-007 4.07371e-006 -0.0123353 -0.00326566 0.0006801 1.13382e-006 -5.7862e-007 4.07359e-006 1.13313e-006 -5.78326e-007 4.07371e-006 1.97333e-006 1.48869e-007 1.26488e-006 1.13313e-006 -5.78326e-007 4.07371e-006 -1.1502 -9.24506 57.9008 -0.747822 -3.84776 21.9858 -1.94096 -12.0225 6.84737 -61.6276 -4.15853 0.610685 -5.24705e-007 -6.61677e-007 1.09206e-007 0 7.95139e-016 -0 -2.69226e-008 -1.53533e-006 -5.18421e-006 -5.24705e-007 -6.61677e-007 1.09206e-007 0.0150086 -9.35742e-005 -9.42453e-006 -5.01714e-007 -1.5243e-006 -6.29502e-006 -5.24705e-007 -6.61677e-007 1.09206e-007 0.0189467 -0.00118817 -5.2069e-005 -2.62713e-008 -1.53623e-006 -5.18396e-006 -5.24705e-007 -6.61677e-007 1.09206e-007 0.0122614 -0.00324769 -0.000684051 -2.66045e-008 -1.536e-006 -5.18407e-006 -5.24705e-007 -6.61677e-007 1.09206e-007 0 7.95139e-016 -0 -2.69226e-008 -1.53533e-006 -5.18421e-006 -143.289 -9.35519 -174.543 -144.912 63.2686 141.445 -17.4489 -5.41614 -0.564716 1.38951e-007 -3.98457e-007 -6.38746e-008 141.391 -8.57515 175.406 144.995 63.2787 -141.545 19.3535 -5.85708 -0.724563 -4.17453e-007 -1.19483e-006 1.93635e-007 
39.7392 14.7977 1.25804 -0.00798086 -54.1184 179.996 -0.186864 8.09171 -0.140336 -0.358934 16.184 -0.257619 -0.358934 16.184 -0.257619 -1.41515e-006 -43.2977 -5.95778e-007 -1.74487e-008 -27.1154 -1.25424e-008 2.83905 -11.6685 -67.5624 -0.191481 -3.86883 -2.32431 -0.882121 -11.8569 -7.02223 57.4089 -12.4299 -4.21941 1.99673e-006 1.52379e-007 1.2589e-006 -3.18055e-015 -7.95139e-015 -1.59028e-015 6.36111e-015 -7.15625e-015 -1.59028e-015 1.99673e-006 1.52379e-007 1.2589e-006 -0.0145992 -8.86281e-005 2.80402e-006 1.99544e-006 1.52211e-007 1.25891e-006 1.99673e-006 1.52379e-007 1.2589e-006 -0.0187893 -0.00117861 6.01183e-005 -3.18055e-015 -7.95139e-016 -4.77083e-015 1.99673e-006 1.52379e-007 1.2589e-006 -0.0123056 -0.00325748 0.000683272 0 0 -3.18055e-015 1.99673e-006 1.52379e-007 1.2589e-006 -3.18055e-015 -7.95139e-015 -1.59028e-015 6.36111e-015 -7.15625e-015 -1.59028e-015 -1.15201 -9.29199 57.1102 -0.785593 -3.8565 23.0196 -2.10686 -12.0257 6.56816 -61.8806 -4.23244 0.578452 3.18055e-015 2.42517e-014 -0 3.18055e-015 2.38542e-014 1.59028e-015 1.21382e-030 2.18663e-014 -3.18055e-015 3.18055e-015 2.42517e-014 -0 0.0149918 -9.11586e-005 5.89522e-006 -4.41391e-032 -7.95139e-016 -3.18055e-015 3.18055e-015 2.42517e-014 -0 0.0189745 -0.00119085 -6.24963e-005 -1.32417e-031 -1.59028e-015 -4.77083e-015 3.18055e-015 2.42517e-014 -0 0.0122303 -0.00323785 -0.000668367 3.18055e-015 7.95139e-016 -0 3.18055e-015 2.42517e-014 -0 3.18055e-015 2.38542e-014 1.59028e-015 1.21382e-030 2.18663e-014 -3.18055e-015 -143.563 -9.34285 -174.507 -144.907 63.2716 141.441 -17.0919 -5.47888 -0.77965 3.18779e-006 1.11138e-006 7.05869e-008 141.784 -8.60948 175.312 144.99 63.2817 -141.541 18.8753 -5.88606 -0.431548 1.73232e-006 -1.58138e-007 -2.87411e-008 
